<?xml version="1.0" encoding="utf-8"?>
<!-- Generator: Adobe Illustrator 21.1.0, SVG Export Plug-In . SVG Version: 6.00 Build 0)  -->
<svg version="1.1" id="Layer_1" xmlns="http://www.w3.org/2000/svg" xmlns:xlink="http://www.w3.org/1999/xlink" x="0px" y="0px"
	 viewBox="0 0 694 122" style="enable-background:new 0 0 694 122;" xml:space="preserve">
<style type="text/css">
	.st0{fill:none;stroke:#000000;stroke-width:2;stroke-miterlimit:10;}
	.st1{fill:#231F20;}
</style>
<g>
	<path d="M37.3,86.5c8.5,0,15.1-6.6,15.1-16.3v-38h9.2v61.5h-9.1V88c-4.1,4.3-9.8,6.8-16.3,6.8C23.1,94.8,13,85.2,13,70.7V32.2h9.2
		v38C22.2,80.1,28.7,86.5,37.3,86.5"/>
	<path d="M68.5,32.2h8.9v22.4c4-4.1,9.7-6.7,15.9-6.7c13.2,0,23.6,10.5,23.6,23.5c0,12.9-10.4,23.4-23.6,23.4c-6.2,0-12-2.5-16-6.7
		v5.6h-8.8V32.2z M92.7,87c8.4,0,15.4-6.9,15.4-15.6c0-8.7-6.9-15.6-15.4-15.6c-8.5,0-15.5,6.9-15.5,15.6C77.2,80,84.1,87,92.7,87"
		/>
	<path d="M143.4,48c12.9,0,22.4,9.9,22.4,23.3v2.9h-36.5c1.2,7.3,7.3,12.7,14.9,12.7c5.2,0,9.6-2.1,12.9-6.6l6.4,4.7
		c-4.5,6-11.2,9.6-19.3,9.6c-13.4,0-23.8-10-23.8-23.4C120.4,58.7,130.3,48,143.4,48 M129.5,67.2h27.3c-1.5-6.9-7-11.4-13.6-11.4
		C136.6,55.8,131.1,60.3,129.5,67.2"/>
	<path d="M189.6,56.8c-5.8,0-10,4.5-10,11.4v25.5h-8.9V48.9h8.8v5.5c2.2-3.6,5.8-5.9,10.7-5.9h3.1v8.3H189.6z"/>
</g>
<line class="st0" x1="244.6" y1="13.5" x2="244.6" y2="111.3"/>
<g>
	<path class="st1" d="M472.7,31.8l9.9,26.8h-7.1l-1.3-4.3h-9.9l-1.3,4.3h-7.1l9.9-26.8H472.7z M469.1,38.2c-0.3,1.4-0.7,2.8-1.1,4.1
		c-0.6,2-1.6,5.2-2.2,7.2h6.8L469.1,38.2z"/>
	<path class="st1" d="M489.8,40.8c1.3-1.1,2.7-2,5.7-2.3v5.2l-1.9,0.3c-2.8,0.5-3.6,0.9-3.6,3.4v11.2h-5.8V38.7h5.7V40.8z"/>
	<path class="st1" d="M497.5,31.7h5.8v4.5h-5.8V31.7z M497.5,38.7h5.8v19.8h-5.8V38.7z"/>
	<path class="st1" d="M506.9,38.8h17v4.5L513.3,54h10.5v4.6h-18.1v-4.4l10.7-10.9h-9.6V38.8z"/>
	<path class="st1" d="M546.2,48.6c0,5-2.9,10.5-10.6,10.5c-5.6,0-10.7-3.2-10.7-10.5c0-6.1,3.8-10.9,11.4-10.5
		C544.4,38.6,546.2,45,546.2,48.6z M531.8,44.7c-0.7,1.1-1,2.5-1,3.9c0,3.1,1.5,5.9,4.8,5.9c3.1,0,4.7-2.5,4.7-5.7
		c0-2.2-0.5-3.9-1.6-5c-1.2-1.1-2.6-1.2-3.4-1.1C533.5,42.9,532.5,43.5,531.8,44.7z"/>
	<path class="st1" d="M554,40.6c0.6-0.6,0.9-1.1,2-1.6c0.9-0.4,2.2-0.7,3.6-0.7c1.2,0,2.5,0.2,3.5,0.8c2.1,1.1,2.6,2.9,2.6,6v13.5
		h-5.8V47.4c0-1.8,0-2.4-0.3-3c-0.5-1.1-1.5-1.5-2.6-1.5c-3.1,0-3.1,2.5-3.1,4.9v10.7h-5.8V38.8h5.9V40.6z"/>
	<path class="st1" d="M568.6,44.4c0.1-1.4,0.3-3,2.1-4.4c1.8-1.4,4.2-1.7,6.5-1.7c2.4,0,8.3,0.6,8.3,5.7v11.5c0,2.1,0.1,2.4,0.6,3.1
		h-5.7v-1.8c-1.5,1.1-3.1,2.4-6.1,2.4c-4.6,0-6.5-3.3-6.5-6c0-3.2,2.5-5,4.2-5.7c1.6-0.7,5.3-1.4,7.8-1.8v-1.1
		c-0.1-0.9-0.2-2.4-2.2-2.4c-2.6,0-2.9,1.6-3.1,2.3H568.6z M576,50.3c-1,0.4-2.5,0.9-2.5,2.5c0,0.9,0.8,2,2.2,2c0.7,0,1.4-0.3,2-0.6
		c1.9-1.2,2-3,2-5.1L576,50.3z"/>
	<path class="st1" d="M598.4,50.5c0.7,0.8,1.3,1.4,2.6,2.1c1.8,0.9,3.6,1.3,5.2,1.3c2.7,0,4.9-1.3,4.9-3.1c0-2.1-2.7-2.5-4.7-2.7
		c-1.5-0.2-3-0.4-4.4-0.7c-1.6-0.3-7.2-1.5-7.2-7.3c0-6.9,6.1-9,10.8-9c6.2,0,9.5,3,11.8,5.1l-4.9,3.5c-0.8-0.8-1.6-1.6-2.7-2.2
		c-0.9-0.5-2.7-1.2-4.4-1.2c-2.7,0-4,1.5-4,2.8c0,2,2.3,2.4,3.4,2.5c2.8,0.3,6.7,1.1,8.2,1.6c3.1,1.1,4.6,3.5,4.6,6.6
		c0,1.9-0.7,4.1-2.1,5.7c-2.4,2.8-6.3,3.6-10.1,3.6c-7.5,0-10.5-3.5-12.2-5.4L598.4,50.5z"/>
	<path class="st1" d="M620.6,33h5.8v6.2h3.8v3.6h-3.9v8.9c0,1.2,0,2.2,1.5,2.2l2.1-0.1v4.6c-1.3,0.2-2,0.3-3.1,0.3
		c-2,0-4.2-0.1-5.5-1.9c-0.8-1.2-0.8-2.6-0.8-4.5v-9.6h-2.9v-3.6h2.9V33z"/>
	<path class="st1" d="M632.1,44.4c0.1-1.4,0.3-3,2.1-4.4c1.8-1.4,4.2-1.7,6.5-1.7c2.4,0,8.3,0.6,8.3,5.7v11.5c0,2.1,0.1,2.4,0.6,3.1
		h-5.7v-1.8c-1.5,1.1-3.1,2.4-6.1,2.4c-4.6,0-6.5-3.3-6.5-6c0-3.2,2.5-5,4.2-5.7c1.6-0.7,5.3-1.4,7.8-1.8v-1.1
		c-0.1-0.9-0.2-2.4-2.2-2.4c-2.6,0-2.9,1.6-3.1,2.3H632.1z M639.5,50.3c-1,0.4-2.5,0.9-2.5,2.5c0,0.9,0.8,2,2.2,2
		c0.7,0,1.4-0.3,2-0.6c1.9-1.2,2-3,2-5.1L639.5,50.3z"/>
	<path class="st1" d="M653,33h5.8v6.2h3.8v3.6h-3.9v8.9c0,1.2,0,2.2,1.5,2.2l2.1-0.1v4.6c-1.3,0.2-2,0.3-3.1,0.3
		c-2,0-4.2-0.1-5.5-1.9c-0.8-1.2-0.8-2.6-0.8-4.5v-9.6h-2.9v-3.6h2.9V33z"/>
	<path class="st1" d="M683.3,53.5c-0.7,1-1.4,2-2.4,3c-1.7,1.6-4.3,2.8-7.5,2.8c-5.9,0-10-3.8-10-10.2c0-4.8,2.4-10.9,10.2-10.9
		c1.2,0,4.6,0.1,7.1,2.8c2.6,2.8,2.7,6.6,2.8,8.9h-14.2c0,2.5,1.4,4.9,4.5,4.9c3.2,0,4.3-2.1,5-3.5L683.3,53.5z M677.5,46.2
		c-0.1-0.8-0.3-1.9-1.1-2.8c-0.7-0.7-1.8-1.1-2.8-1.1c-1.4,0-2.4,0.7-3,1.3c-0.8,0.9-1,1.8-1.2,2.6H677.5z"/>
	<path class="st1" d="M479.6,67.4v14.9c0,2.6-0.1,5.2-1.6,7.6c-2.9,4.6-8.8,4.9-10,4.9c-2,0-4.4-0.5-6.2-1.4
		c-5.2-2.7-5.2-7.4-5.1-11V67.4h6.8V84c0,1.4,0,2.5,0.5,3.3c0.8,1.4,2.7,1.8,4.3,1.8c4.6,0,4.6-3.1,4.6-5.2V67.4H479.6z"/>
	<path class="st1" d="M488.5,76.1c0.6-0.6,0.9-1.1,2-1.6c0.9-0.4,2.2-0.7,3.6-0.7c1.2,0,2.5,0.2,3.5,0.8c2.1,1.1,2.6,2.9,2.6,6v13.5
		h-5.8V83c0-1.8,0-2.4-0.3-3c-0.5-1.1-1.5-1.5-2.6-1.5c-3.1,0-3.1,2.5-3.1,4.9v10.7h-5.8V74.4h5.9V76.1z"/>
	<path class="st1" d="M503.3,67.3h5.8v4.5h-5.8V67.3z M503.3,74.3h5.8v19.8h-5.8V74.3z"/>
	<path class="st1" d="M510.7,74.3h6.1c2.4,8.8,2.8,10.6,3.5,14.4c0.8-4.4,0.9-4.9,2.1-9.6l1.2-4.9h6l-6.4,19.8h-6.1L510.7,74.3z"/>
	<path class="st1" d="M549.5,89.1c-0.7,1-1.4,2-2.4,3c-1.7,1.6-4.3,2.8-7.5,2.8c-5.9,0-10-3.8-10-10.2c0-4.8,2.4-10.9,10.2-10.9
		c1.2,0,4.6,0.1,7.1,2.8c2.6,2.8,2.7,6.6,2.8,8.9h-14.2c0,2.5,1.4,4.9,4.5,4.9c3.2,0,4.3-2.1,5-3.5L549.5,89.1z M543.7,81.8
		c-0.1-0.8-0.3-1.9-1.1-2.8c-0.7-0.7-1.8-1.1-2.8-1.1c-1.4,0-2.4,0.7-3,1.3c-0.8,0.9-1,1.8-1.2,2.6H543.7z"/>
	<path class="st1" d="M557.7,76.4c1.3-1.1,2.7-2,5.7-2.3v5.2l-1.9,0.3c-2.8,0.5-3.6,0.9-3.6,3.4v11.2H552V74.3h5.7V76.4z"/>
	<path class="st1" d="M567,87.5c1.6,1.6,3.6,2.7,5.8,2.7c1.4,0,3.5-0.5,3.5-1.9c0-0.7-0.4-0.9-0.8-1.1c-0.9-0.5-2.2-0.6-3.4-0.8
		c-0.9-0.2-1.8-0.3-2.7-0.6c-1.2-0.3-2.4-0.8-3.3-1.7c-0.9-0.9-1.5-2.2-1.5-3.7c0-3.3,2.8-6.6,8.3-6.6c4.7,0,7.5,2,8.8,3l-3.6,3.3
		c-1.9-1.4-3.6-2-5-2c-2.3,0-2.8,0.9-2.8,1.5c0,1.1,1.3,1.4,3.1,1.7c4,0.7,8.6,1.8,8.6,6.5c0,4.7-4.7,6.9-9.4,6.9
		c-5.5,0-8.3-2.7-9.6-3.8L567,87.5z"/>
	<path class="st1" d="M584.1,67.3h5.8v4.5h-5.8V67.3z M584.1,74.3h5.8v19.8h-5.8V74.3z"/>
	<path class="st1" d="M594.8,68.6h5.8v6.2h3.8v3.6h-3.9v8.9c0,1.2,0,2.2,1.5,2.2l2.1-0.1V94c-1.3,0.2-2,0.3-3.1,0.3
		c-2,0-4.2-0.1-5.5-1.9c-0.8-1.2-0.8-2.6-0.8-4.5v-9.6h-2.9v-3.6h2.9V68.6z"/>
	<path class="st1" d="M624.8,74.3l-7,21.4c-0.5,1.3-0.9,2.5-1.9,3.6c-1.4,1.5-2.7,1.6-4.2,1.6h-4.2v-4.6h2c0.9,0,2.4,0,2.4-1.4
		c0-0.5-0.2-1-0.3-1.4l-5.9-19.1h6.2l3.3,14.2l3.3-14.2H624.8z"/>
</g>
<g>
	<path class="st1" d="M443.5,36.6c-1.3,0-2.3-1-2.3-2.3c0-1.3,1-2.3,2.3-2.3c1.3,0,2.3,1.1,2.3,2.3
		C445.8,35.6,444.8,36.6,443.5,36.6z M443.5,31.7c-1.4,0-2.6,1.1-2.6,2.6c0,1.5,1.2,2.6,2.6,2.6c1.5,0,2.6-1.1,2.6-2.6
		C446.1,32.9,445,31.7,443.5,31.7z M442.5,32.8h0.9c0.4,0,0.6,0,0.9,0.2c0.2,0.1,0.3,0.4,0.3,0.7c0,0.6-0.4,0.7-0.6,0.8l0.6,1.2
		h-0.6l-0.6-1.1h-0.5v1.1h-0.5V32.8z M443.1,33.3v0.9h0.2c0.2,0,0.3,0,0.4,0c0.1,0,0.5,0,0.5-0.4c0-0.1,0-0.3-0.2-0.4
		c-0.1-0.1-0.3-0.1-0.6-0.1H443.1z"/>
	<path class="st1" d="M442.9,93.6c0,0-1-1.1-2.7-3c-2.1-2.3-2-4.7-2-4.7V31.8h-20.5v43.3c-0.3,4.1-4.3,5.1-6.5,5.1
		c-3.2-0.1-5-1.9-5-5V31.8h-20c0,0-8.3,0-14.1,0c-10.9,0-21.3,1.7-24.7,10.8l-2.1-8.1c-0.5-1.6-2.2-2.7-3.9-2.7h-35.7
		c-0.5,0-0.7,0.2-0.4,0.5c0,0,1,0.9,2.7,2.9c2.4,2.8,1.5,6.5,1.5,6.5l-13.1,52.3h19l2.7-11.5h18.4l2.9,11.5c0,0,23.4,0,25.1,0
		c10.3,0,18.7-1,22.8-7.5c3.1,5.9,9.7,8.6,21.4,7.6c4.1-0.3,8.1-2.3,9.8-5.3l0.8,2.5c0.7,1.5,2.1,2.7,4.1,2.7l19.1,0
		C443,94.1,443.1,94,442.9,93.6z M343.4,42.9l3.4,2.1c-0.1,0.6-0.2,1.3-0.3,1.8l-3.6-3.3C342.6,43.2,343,42.7,343.4,42.9z
		 M339.9,47.3l6.4,2.6c0,0.8,0,1.8,0.1,2.6l-6.9-4.5C339.1,47.7,339.5,47.2,339.9,47.3z M337.3,52.2l9.5,2.1
		c0.3,1.1,0.7,2.4,1.2,3.3L337,52.9C336.6,52.7,336.8,52.1,337.3,52.2z M321,71.3l6.3-25.6l6.4,25.6H321z M373.5,79.7
		c-1.8,1.7-5.2,2.5-8.9,2.1c-2.1-0.2-4.3-1.3-4.3-1.3l-7.7,9.5c-0.3,0.4-0.9,0-0.7-0.4l5.3-10.6c0.1-0.1-0.1-0.2-0.2-0.2l-9.3,8.1
		c-0.4,0.3-0.9-0.2-0.6-0.5l7.2-9.6c0.1-0.1,0-0.2-0.2-0.2l-10.8,6.6c-0.4,0.2-0.8-0.3-0.5-0.6l9-8.4c0.1-0.1,0-0.2-0.1-0.2l-12,4.8
		c-0.4,0.2-0.7-0.4-0.4-0.7l10.5-6.8c0.1-0.1,0-0.2-0.1-0.2l-12.7,2.9c-0.4,0.1-0.7-0.5-0.2-0.7l11.8-5.1c0.1,0,0.1-0.2,0-0.2
		l-13.1,0.8c-0.5,0-0.6-0.6-0.1-0.7l12.6-3.2c0.1,0,0.1-0.2,0-0.2l-13-1.2c-0.4,0-0.4-0.7,0-0.7l13.1-1.2c0.1,0,0.1-0.2,0-0.2
		l-12.6-3.2c-0.4-0.1-0.3-0.8,0.1-0.7l12.5,0.8c3.2,5.9,10,8.2,15.9,10.3c5.8,2,10.8,3.7,10.8,8.2C374.9,77.8,374.4,78.9,373.5,79.7
		z M391.4,87.1l-3-2.6c0,0,0.4-1.1,0.7-1.8l2.9,3.8C392.2,86.9,391.7,87.4,391.4,87.1z M395.7,83.3l-5.9-3.6c0,0,0.2-1.7,0.3-2.7
		l6.1,5.7C396.5,83,396.1,83.6,395.7,83.3z M399.2,78.9l-9.1-3.6c0,0,0-2.1-0.2-3.3l9.6,6.3C399.9,78.5,399.6,79.1,399.2,78.9z
		 M404,63.5l-13,1.2c-0.1,0-0.1,0.2,0,0.2l12.5,3.2c0.4,0.1,0.3,0.8-0.1,0.7l-13-0.8c-0.1,0-0.2,0.2,0,0.2l11.8,5.1
		c0.4,0.2,0.2,0.8-0.2,0.7l-12-2.7c0,0-0.5-5.4-6.7-9.7c-3.3-2.2-7.2-3.7-10.7-5.1c-2.7-1-5.2-2-7-3.1c-2-1.3-3-2.7-3-4.4
		c0-1.2,0.4-2.3,1.2-3.1c1.4-1.4,4-2,7.4-2c3.7,0,7.6,1.7,7.6,1.7l7.8-9.7c0.3-0.4,0.9,0,0.7,0.4l-5.3,10.7c0,0.1,0.1,0.2,0.2,0.1
		l9.5-8.2c0.4-0.3,0.9,0.2,0.6,0.5l-7.3,9.7c-0.1,0.1,0,0.2,0.1,0.1l10.9-6.6c0.4-0.2,0.8,0.3,0.5,0.6l-9,8.4
		c-0.1,0.1,0,0.2,0.1,0.2l12-4.8c0.4-0.2,0.7,0.4,0.4,0.7L389,54.9c-0.1,0.1,0,0.2,0.1,0.2l12.7-2.9c0.4-0.1,0.7,0.5,0.2,0.7
		L390.3,58c-0.1,0-0.1,0.2,0,0.2l13-0.8c0.5,0,0.6,0.6,0.1,0.7l-12.5,3.2c-0.1,0-0.1,0.2,0,0.2l13,1.2
		C404.4,62.8,404.4,63.5,404,63.5z"/>
</g>
</svg>
